<svg width="44" height="32" viewBox="0 0 44 32" fill="none" xmlns="http://www.w3.org/2000/svg">
<path fill-rule="evenodd" clip-rule="evenodd" d="M30.3166 8.4657C30.3166 13.1651 26.5703 16.9332 21.8981 16.9332C17.2259 16.9332 13.4795 13.1651 13.4795 8.4657C13.4795 3.76454 17.2259 0 21.8981 0C26.5703 0 30.3166 3.76454 30.3166 8.4657ZM21.8977 32C15.0353 32 9.17578 30.912 9.17578 26.5603C9.17578 22.2068 14.9977 21.0792 21.8977 21.0792C28.76 21.0792 34.6195 22.1672 34.6195 26.5207C34.6195 30.8724 28.7976 32 21.8977 32ZM33.9145 8.6184C33.9145 11.014 33.2 13.2457 31.9464 15.101C31.8175 15.2919 31.9321 15.5495 32.1596 15.5891C32.4729 15.6431 32.7971 15.6738 33.1266 15.6828C36.4127 15.7692 39.3622 13.642 40.177 10.4394C41.384 5.68242 37.84 1.41174 33.3272 1.41174C32.8365 1.41174 32.3673 1.46398 31.9106 1.55764C31.848 1.57205 31.7817 1.60087 31.7459 1.65671C31.7029 1.72515 31.7351 1.81702 31.7781 1.87646C33.1338 3.78754 33.9145 6.11831 33.9145 8.6184ZM39.3567 19.0251C41.5648 19.4592 43.0171 20.3454 43.6188 21.6332C44.1274 22.6905 44.1274 23.9172 43.6188 24.9727C42.6983 26.9702 39.731 27.6115 38.5777 27.7772C38.3395 27.8132 38.1479 27.6061 38.173 27.3665C38.7621 21.8314 34.0756 19.207 32.8632 18.6036C32.8113 18.5766 32.8006 18.5352 32.8059 18.5099C32.8095 18.4919 32.831 18.4631 32.8704 18.4577C35.4939 18.4091 38.3144 18.7693 39.3567 19.0251ZM10.8744 15.6826C11.2039 15.6736 11.5262 15.6448 11.8414 15.589C12.0688 15.5493 12.1835 15.2918 12.0545 15.1008C10.801 13.2456 10.0864 11.0139 10.0864 8.61828C10.0864 6.11819 10.8672 3.78742 12.2229 1.87633C12.2658 1.81689 12.2963 1.72503 12.2551 1.65659C12.2193 1.60255 12.1512 1.57193 12.0903 1.55752C11.6319 1.46386 11.1627 1.41162 10.672 1.41162C6.15919 1.41162 2.61518 5.6823 3.82398 10.4393C4.63879 13.6419 7.58825 15.7691 10.8744 15.6826ZM11.1939 18.5089C11.1992 18.5359 11.1885 18.5755 11.1384 18.6043C9.9242 19.2077 5.23766 21.8321 5.82683 27.3654C5.8519 27.6068 5.66208 27.8121 5.4239 27.7779C4.27062 27.6122 1.30326 26.971 0.382785 24.9734C-0.127595 23.9161 -0.127595 22.6913 0.382785 21.634C0.984495 20.3461 2.43505 19.4599 4.64311 19.024C5.68715 18.77 8.50588 18.4098 11.1312 18.4584C11.1706 18.4638 11.1903 18.4927 11.1939 18.5089Z" fill="#45286B"/>
</svg>
